<svg width="144" height="348" viewBox="0 0 144 348" fill="none" xmlns="http://www.w3.org/2000/svg">
<g clip-path="url(#clip0_310_3)">
<path d="M76.9012 26.0705C89.4 42.4959 85.1882 71.6108 94.9938 91.0075C103.189 107.218 122.948 109.884 128.434 128.008C133.862 145.941 121.556 165.714 123.41 184.89C126.224 213.993 151.144 241.53 141.99 268.223C133.7 292.396 104.924 285.1 86.061 293.795C69.9682 301.212 55.4492 316.969 38.4361 315.953C21.6314 314.95 8.85909 296.286 -6.84178 288.25C-23.1492 279.903 -43.4153 283.368 -56.1993 267.516C-68.9957 251.648 -72.6174 226.407 -75.2722 203.397C-77.783 181.635 -73.1555 160.257 -71.0952 138.411C-68.9364 115.521 -69.6829 92.1339 -62.7829 70.9715C-55.1461 47.5492 -45.8523 22.6411 -29.2095 9.9465C-12.5409 -2.76775 8.31468 -0.719054 27.402 2.18135C45.0608 4.86469 64.253 9.44884 76.9012 26.0705Z" fill="url(#paint0_linear_310_3)"/>
<path d="M36.966 70.173C47.59 85.4028 44.01 112.399 52.3447 130.384C59.3105 145.414 76.1061 147.887 80.7688 164.691C85.3825 181.319 74.9226 199.653 76.4984 217.433C78.89 244.418 100.073 269.95 92.2914 294.701C85.2448 317.114 60.7857 310.349 44.7518 318.411C31.0729 325.289 18.7318 339.898 4.27068 338.957C-10.0133 338.027 -20.8698 320.721 -34.2155 313.269C-48.0768 305.53 -65.303 308.743 -76.1694 294.045C-87.0464 279.332 -90.1248 255.928 -92.3813 234.593C-94.5156 214.415 -90.5822 194.593 -88.8309 174.337C-86.996 153.113 -87.6305 131.428 -81.7655 111.806C-75.2742 90.0883 -67.3745 66.9932 -53.2281 55.2225C-39.0598 43.4337 -21.3325 45.3333 -5.10833 48.0226C9.9017 50.5106 26.2151 54.7611 36.966 70.173Z" fill="url(#paint1_linear_310_3)"/>
</g>
<defs>
<linearGradient id="paint0_linear_310_3" x1="34" y1="0" x2="34" y2="316" gradientUnits="userSpaceOnUse">
<stop stop-color="#3482F7"/>
<stop offset="1" stop-color="#34D4F7"/>
</linearGradient>
<linearGradient id="paint1_linear_310_3" x1="0.5" y1="46" x2="0.5" y2="339" gradientUnits="userSpaceOnUse">
<stop stop-color="#3482F7"/>
<stop offset="1" stop-color="#34D4F7"/>
</linearGradient>
<clipPath id="clip0_310_3">
<rect width="144" height="348" fill="white"/>
</clipPath>
</defs>
</svg>
