<svg width="183" height="194" viewBox="0 0 183 194" fill="none" xmlns="http://www.w3.org/2000/svg">
<g clip-path="url(#clip0_310_21)">
<path d="M169.34 -45.4388C183.543 -44.3131 193.417 -29.6818 204.235 -19.581C215.436 -9.12272 226.245 1.54775 234.181 15.1019C243.135 30.3938 256.799 46.7689 253.496 64.552C250.088 82.8972 227.45 88.5167 217.684 103.909C208.817 117.885 213.607 143.48 199.242 150.067C183.56 157.258 167.874 133.255 150.903 134.531C135.727 135.671 125.869 155.59 110.692 156.721C94.7809 157.907 73.9424 155.794 65.7346 140.878C56.5869 124.255 74.0435 102.678 70.4978 83.6797C67.73 68.8489 49.0589 61.2151 48.0498 46.1202C47.0592 31.3023 61.1289 20.4797 65.3278 6.34596C70.778 -11.9994 60.3399 -41.5374 76.4512 -49.4791C94.2265 -58.2411 110.391 -26.322 129.881 -25.4743C144.553 -24.8361 154.696 -46.5995 169.34 -45.4388Z" fill="url(#paint0_linear_310_21)" fill-opacity="0.7"/>
<path d="M166.532 -26.8179C178.182 -25.9713 186.281 -14.9682 195.155 -7.37214C204.343 0.49279 213.209 8.51725 219.719 18.7103C227.063 30.2102 238.272 42.5248 235.562 55.898C232.767 69.6941 214.197 73.9201 206.187 85.4953C198.914 96.0061 202.843 115.254 191.06 120.208C178.196 125.615 165.329 107.565 151.408 108.524C138.96 109.381 130.874 124.361 118.425 125.212C105.373 126.103 88.2798 124.514 81.5472 113.297C74.0436 100.796 88.3627 84.5697 85.4544 70.2826C83.1839 59.1294 67.8686 53.3886 67.0408 42.0369C66.2283 30.8934 77.7692 22.7546 81.2135 12.1256C85.6842 -1.67054 77.1221 -23.8839 90.3377 -29.8562C104.918 -36.4455 118.177 -12.4415 134.165 -11.804C146.2 -11.3241 154.52 -27.6907 166.532 -26.8179Z" fill="#F78234"/>
</g>
<defs>
<linearGradient id="paint0_linear_310_21" x1="276" y1="223" x2="36.5" y2="-51" gradientUnits="userSpaceOnUse">
<stop stop-color="#F78234"/>
<stop offset="1" stop-color="#F73434" stop-opacity="0.53"/>
</linearGradient>
<clipPath id="clip0_310_21">
<rect width="183" height="194" fill="white"/>
</clipPath>
</defs>
</svg>
